<mxfile host="app.diagrams.net" modified="2023-07-09T13:21:37.103Z" agent="Mozilla/5.0 (Windows NT 10.0; Win64; x64) AppleWebKit/537.36 (KHTML, like Gecko) Chrome/114.0.0.0 Safari/537.36" etag="NtWSiS2eacN-6-EoZX9u" version="21.6.1" type="github">
  <diagram name="Page-1" id="QlsRLyWBo3Ikp3jTPdi9">
    <mxGraphModel dx="1120" dy="427" grid="1" gridSize="10" guides="1" tooltips="1" connect="1" arrows="1" fold="1" page="1" pageScale="1" pageWidth="850" pageHeight="1100" math="0" shadow="0">
      <root>
        <mxCell id="0" />
        <mxCell id="1" parent="0" />
        <mxCell id="85Pe6ctwn7PYqxFblsjP-1" value="«interface»&lt;br&gt;&lt;b&gt;Subject&lt;br&gt;&lt;/b&gt;" style="html=1;whiteSpace=wrap;" vertex="1" parent="1">
          <mxGeometry x="300" y="90" width="130" height="50" as="geometry" />
        </mxCell>
        <mxCell id="85Pe6ctwn7PYqxFblsjP-2" value="«interface»&lt;br&gt;&lt;b&gt;Observer&lt;/b&gt;" style="html=1;whiteSpace=wrap;" vertex="1" parent="1">
          <mxGeometry x="610" y="90" width="130" height="50" as="geometry" />
        </mxCell>
        <mxCell id="85Pe6ctwn7PYqxFblsjP-3" value="ConcreteSubject" style="swimlane;fontStyle=1;align=center;verticalAlign=top;childLayout=stackLayout;horizontal=1;startSize=26;horizontalStack=0;resizeParent=1;resizeParentMax=0;resizeLast=0;collapsible=1;marginBottom=0;whiteSpace=wrap;html=1;" vertex="1" parent="1">
          <mxGeometry x="250" y="250" width="230" height="160" as="geometry" />
        </mxCell>
        <mxCell id="85Pe6ctwn7PYqxFblsjP-4" value="+ observers: List&amp;lt;Observer&amp;gt;" style="text;strokeColor=none;fillColor=none;align=left;verticalAlign=top;spacingLeft=4;spacingRight=4;overflow=hidden;rotatable=0;points=[[0,0.5],[1,0.5]];portConstraint=eastwest;whiteSpace=wrap;html=1;" vertex="1" parent="85Pe6ctwn7PYqxFblsjP-3">
          <mxGeometry y="26" width="230" height="26" as="geometry" />
        </mxCell>
        <mxCell id="85Pe6ctwn7PYqxFblsjP-5" value="" style="line;strokeWidth=1;fillColor=none;align=left;verticalAlign=middle;spacingTop=-1;spacingLeft=3;spacingRight=3;rotatable=0;labelPosition=right;points=[];portConstraint=eastwest;strokeColor=inherit;" vertex="1" parent="85Pe6ctwn7PYqxFblsjP-3">
          <mxGeometry y="52" width="230" height="8" as="geometry" />
        </mxCell>
        <mxCell id="85Pe6ctwn7PYqxFblsjP-6" value="+ registerObserver(Observer): boolean&lt;br&gt;+ removeObserver(Observer): boolean&lt;br&gt;+ notify(): void&lt;br&gt;&lt;br&gt;+ getState()&lt;br&gt;+ setState()&lt;br&gt;" style="text;strokeColor=none;fillColor=none;align=left;verticalAlign=top;spacingLeft=4;spacingRight=4;overflow=hidden;rotatable=0;points=[[0,0.5],[1,0.5]];portConstraint=eastwest;whiteSpace=wrap;html=1;" vertex="1" parent="85Pe6ctwn7PYqxFblsjP-3">
          <mxGeometry y="60" width="230" height="100" as="geometry" />
        </mxCell>
        <mxCell id="85Pe6ctwn7PYqxFblsjP-8" value="ConcreteObserver" style="swimlane;fontStyle=1;align=center;verticalAlign=top;childLayout=stackLayout;horizontal=1;startSize=26;horizontalStack=0;resizeParent=1;resizeParentMax=0;resizeLast=0;collapsible=1;marginBottom=0;whiteSpace=wrap;html=1;" vertex="1" parent="1">
          <mxGeometry x="610" y="250" width="160" height="60" as="geometry" />
        </mxCell>
        <mxCell id="85Pe6ctwn7PYqxFblsjP-10" value="" style="line;strokeWidth=1;fillColor=none;align=left;verticalAlign=middle;spacingTop=-1;spacingLeft=3;spacingRight=3;rotatable=0;labelPosition=right;points=[];portConstraint=eastwest;strokeColor=inherit;" vertex="1" parent="85Pe6ctwn7PYqxFblsjP-8">
          <mxGeometry y="26" width="160" height="8" as="geometry" />
        </mxCell>
        <mxCell id="85Pe6ctwn7PYqxFblsjP-11" value="+ update(): void" style="text;strokeColor=none;fillColor=none;align=left;verticalAlign=top;spacingLeft=4;spacingRight=4;overflow=hidden;rotatable=0;points=[[0,0.5],[1,0.5]];portConstraint=eastwest;whiteSpace=wrap;html=1;" vertex="1" parent="85Pe6ctwn7PYqxFblsjP-8">
          <mxGeometry y="34" width="160" height="26" as="geometry" />
        </mxCell>
        <mxCell id="85Pe6ctwn7PYqxFblsjP-12" value="" style="endArrow=open;endFill=1;endSize=12;html=1;rounded=0;" edge="1" parent="1" target="85Pe6ctwn7PYqxFblsjP-2">
          <mxGeometry width="160" relative="1" as="geometry">
            <mxPoint x="430" y="114.5" as="sourcePoint" />
            <mxPoint x="590" y="114.5" as="targetPoint" />
          </mxGeometry>
        </mxCell>
        <mxCell id="85Pe6ctwn7PYqxFblsjP-13" value="" style="endArrow=block;dashed=1;endFill=0;endSize=12;html=1;rounded=0;exitX=0.5;exitY=0;exitDx=0;exitDy=0;entryX=0.5;entryY=1;entryDx=0;entryDy=0;" edge="1" parent="1" source="85Pe6ctwn7PYqxFblsjP-3" target="85Pe6ctwn7PYqxFblsjP-1">
          <mxGeometry width="160" relative="1" as="geometry">
            <mxPoint x="375" y="210" as="sourcePoint" />
            <mxPoint x="355" y="130" as="targetPoint" />
          </mxGeometry>
        </mxCell>
        <mxCell id="85Pe6ctwn7PYqxFblsjP-14" value="" style="endArrow=block;dashed=1;endFill=0;endSize=12;html=1;rounded=0;entryX=0.615;entryY=1;entryDx=0;entryDy=0;entryPerimeter=0;exitX=0.5;exitY=0;exitDx=0;exitDy=0;" edge="1" parent="1" source="85Pe6ctwn7PYqxFblsjP-8" target="85Pe6ctwn7PYqxFblsjP-2">
          <mxGeometry width="160" relative="1" as="geometry">
            <mxPoint x="690" y="240" as="sourcePoint" />
            <mxPoint x="690" y="150" as="targetPoint" />
          </mxGeometry>
        </mxCell>
        <mxCell id="85Pe6ctwn7PYqxFblsjP-16" value="Here is the subject interface. Objects use this interface to register as observers and also to remove themselves from being an observer." style="shape=note;whiteSpace=wrap;html=1;backgroundOutline=1;fontColor=#000000;darkOpacity=0.05;fillColor=#FFF9B2;strokeColor=none;fillStyle=solid;direction=west;gradientDirection=north;gradientColor=#FFF2A1;shadow=1;size=20;pointerEvents=1;" vertex="1" parent="1">
          <mxGeometry x="180" y="20" width="300" height="50" as="geometry" />
        </mxCell>
        <mxCell id="85Pe6ctwn7PYqxFblsjP-18" value="The potential observers need to implement Observer interface. This interface has one method, update(), that gets called when subject&#39;s state changes.&amp;nbsp;" style="shape=note;whiteSpace=wrap;html=1;backgroundOutline=1;fontColor=#000000;darkOpacity=0.05;fillColor=#FFF9B2;strokeColor=none;fillStyle=solid;direction=west;gradientDirection=north;gradientColor=#FFF2A1;shadow=1;size=20;pointerEvents=1;" vertex="1" parent="1">
          <mxGeometry x="530" y="30" width="290" height="50" as="geometry" />
        </mxCell>
        <mxCell id="85Pe6ctwn7PYqxFblsjP-19" value="Concrete subject always implements Subject interface. In addition to register and remove methods, concrete subject implements a notifyObservers() method that is used to update all observers whenever state changes." style="shape=note;whiteSpace=wrap;html=1;backgroundOutline=1;fontColor=#000000;darkOpacity=0.05;fillColor=#FFF9B2;strokeColor=none;fillStyle=solid;direction=west;gradientDirection=north;gradientColor=#FFF2A1;shadow=1;size=20;pointerEvents=1;" vertex="1" parent="1">
          <mxGeometry x="60" y="170" width="150" height="260" as="geometry" />
        </mxCell>
        <mxCell id="85Pe6ctwn7PYqxFblsjP-20" value="The concrete subject may&lt;br&gt;also have methods for&lt;br&gt;setting and getting its state." style="shape=note;whiteSpace=wrap;html=1;backgroundOutline=1;fontColor=#000000;darkOpacity=0.05;fillColor=#FFF9B2;strokeColor=none;fillStyle=solid;direction=west;gradientDirection=north;gradientColor=#FFF2A1;shadow=1;size=20;pointerEvents=1;" vertex="1" parent="1">
          <mxGeometry x="240" y="430" width="240" height="60" as="geometry" />
        </mxCell>
        <mxCell id="85Pe6ctwn7PYqxFblsjP-21" value="&lt;div&gt;any class that implements the&lt;/div&gt;&lt;div&gt;Observer interface. Each&lt;/div&gt;&lt;div&gt;observer registers with a concrete&lt;/div&gt;&lt;div&gt;subject to receive updates.&lt;/div&gt;" style="shape=note;whiteSpace=wrap;html=1;backgroundOutline=1;fontColor=#000000;darkOpacity=0.05;fillColor=#FFF9B2;strokeColor=none;fillStyle=solid;direction=west;gradientDirection=north;gradientColor=#FFF2A1;shadow=1;size=20;pointerEvents=1;" vertex="1" parent="1">
          <mxGeometry x="540" y="330" width="310" height="70" as="geometry" />
        </mxCell>
        <mxCell id="85Pe6ctwn7PYqxFblsjP-22" value="" style="endArrow=open;endFill=1;endSize=12;html=1;rounded=0;entryX=1.009;entryY=0.144;entryDx=0;entryDy=0;entryPerimeter=0;exitX=0;exitY=0.4;exitDx=0;exitDy=0;exitPerimeter=0;" edge="1" parent="1" source="85Pe6ctwn7PYqxFblsjP-8" target="85Pe6ctwn7PYqxFblsjP-3">
          <mxGeometry width="160" relative="1" as="geometry">
            <mxPoint x="440" y="210" as="sourcePoint" />
            <mxPoint x="600" y="210" as="targetPoint" />
          </mxGeometry>
        </mxCell>
        <mxCell id="85Pe6ctwn7PYqxFblsjP-23" value="" style="endArrow=classic;html=1;rounded=0;exitX=0.81;exitY=0.025;exitDx=0;exitDy=0;exitPerimeter=0;entryX=0;entryY=0.5;entryDx=0;entryDy=0;" edge="1" parent="1" source="85Pe6ctwn7PYqxFblsjP-16" target="85Pe6ctwn7PYqxFblsjP-1">
          <mxGeometry width="50" height="50" relative="1" as="geometry">
            <mxPoint x="240" y="130" as="sourcePoint" />
            <mxPoint x="290" y="80" as="targetPoint" />
          </mxGeometry>
        </mxCell>
        <mxCell id="85Pe6ctwn7PYqxFblsjP-24" value="" style="endArrow=classic;html=1;rounded=0;entryX=-0.013;entryY=-0.192;entryDx=0;entryDy=0;entryPerimeter=0;exitX=-0.02;exitY=0.565;exitDx=0;exitDy=0;exitPerimeter=0;" edge="1" parent="1" source="85Pe6ctwn7PYqxFblsjP-19" target="85Pe6ctwn7PYqxFblsjP-4">
          <mxGeometry width="50" height="50" relative="1" as="geometry">
            <mxPoint x="190" y="305" as="sourcePoint" />
            <mxPoint x="240" y="255" as="targetPoint" />
          </mxGeometry>
        </mxCell>
        <mxCell id="85Pe6ctwn7PYqxFblsjP-25" value="" style="endArrow=classic;html=1;rounded=0;entryX=0.087;entryY=0.9;entryDx=0;entryDy=0;entryPerimeter=0;exitX=0.846;exitY=1.017;exitDx=0;exitDy=0;exitPerimeter=0;" edge="1" parent="1" source="85Pe6ctwn7PYqxFblsjP-20" target="85Pe6ctwn7PYqxFblsjP-6">
          <mxGeometry width="50" height="50" relative="1" as="geometry">
            <mxPoint x="330" y="460" as="sourcePoint" />
            <mxPoint x="380" y="410" as="targetPoint" />
          </mxGeometry>
        </mxCell>
        <mxCell id="85Pe6ctwn7PYqxFblsjP-27" value="" style="endArrow=classic;html=1;rounded=0;" edge="1" parent="1">
          <mxGeometry width="50" height="50" relative="1" as="geometry">
            <mxPoint x="560" y="340" as="sourcePoint" />
            <mxPoint x="610" y="290" as="targetPoint" />
          </mxGeometry>
        </mxCell>
        <mxCell id="85Pe6ctwn7PYqxFblsjP-28" value="" style="endArrow=classic;html=1;rounded=0;entryX=1;entryY=0.5;entryDx=0;entryDy=0;exitX=0.034;exitY=0.25;exitDx=0;exitDy=0;exitPerimeter=0;" edge="1" parent="1" source="85Pe6ctwn7PYqxFblsjP-18" target="85Pe6ctwn7PYqxFblsjP-2">
          <mxGeometry width="50" height="50" relative="1" as="geometry">
            <mxPoint x="760" y="150" as="sourcePoint" />
            <mxPoint x="810" y="100" as="targetPoint" />
          </mxGeometry>
        </mxCell>
      </root>
    </mxGraphModel>
  </diagram>
</mxfile>
